name rise30.3154peak39.0474fall46.5389.mot
datacolumns 19
datarows 21
range 21.24825800000000 21.28158900000000
endheader
time	ground_force1_vx	ground_force1_vy	ground_force1_vz	ground_force1_px	ground_force1_py	ground_force1_pz	ground_force2_vx	ground_force2_vy	ground_force2_vz	ground_force2_px	ground_force2_py	ground_force2_pz	ground_torque1_x	ground_torque1_y	ground_torque1_z	ground_torque2_x	ground_torque2_y	ground_torque2_z	
21.24825800000000	-41.33240300000000	797.95549600000004	51.99379200000000	0.15876200000000	0.00000000000000	0.10661000000000	0.00000000000000	0.00000000000000	0.00000000000000	0.00000000000000	0.00000000000000	0.00000000000000	0.00000000000000	23.54590600000000	0.00000000000000	0.00000000000000	0.00000000000000	0.00000000000000	
21.24991900000000	-41.23186700000000	794.44588399999998	51.88466000000000	0.15802600000000	0.00000000000000	0.10658200000000	0.00000000000000	0.00000000000000	0.00000000000000	0.00000000000000	0.00000000000000	0.00000000000000	0.00000000000000	23.42659600000000	0.00000000000000	0.00000000000000	0.00000000000000	0.00000000000000	
21.25158700000000	-41.15119100000000	790.85025399999995	51.75856100000000	0.15726800000000	0.00000000000000	0.10655100000000	0.00000000000000	0.00000000000000	0.00000000000000	0.00000000000000	0.00000000000000	0.00000000000000	0.00000000000000	23.30589900000000	0.00000000000000	0.00000000000000	0.00000000000000	0.00000000000000	
21.25325500000000	-41.09182300000000	787.17226900000003	51.61548300000000	0.15648600000000	0.00000000000000	0.10651700000000	0.00000000000000	0.00000000000000	0.00000000000000	0.00000000000000	0.00000000000000	0.00000000000000	0.00000000000000	23.18411100000000	0.00000000000000	0.00000000000000	0.00000000000000	0.00000000000000	
21.25492400000000	-41.05513300000000	783.41546500000004	51.45543400000000	0.15568200000000	0.00000000000000	0.10648000000000	0.00000000000000	0.00000000000000	0.00000000000000	0.00000000000000	0.00000000000000	0.00000000000000	0.00000000000000	23.06152800000000	0.00000000000000	0.00000000000000	0.00000000000000	0.00000000000000	
21.25658600000000	-41.04240600000000	779.58323099999996	51.27843900000000	0.15485400000000	0.00000000000000	0.10644100000000	0.00000000000000	0.00000000000000	0.00000000000000	0.00000000000000	0.00000000000000	0.00000000000000	0.00000000000000	22.93843900000000	0.00000000000000	0.00000000000000	0.00000000000000	0.00000000000000	
21.25825700000000	-41.05483700000000	775.67879100000005	51.08454400000000	0.15400200000000	0.00000000000000	0.10639900000000	0.00000000000000	0.00000000000000	0.00000000000000	0.00000000000000	0.00000000000000	0.00000000000000	0.00000000000000	22.81512500000000	0.00000000000000	0.00000000000000	0.00000000000000	0.00000000000000	
21.25992200000000	-41.09352200000000	771.70519300000001	50.87380600000000	0.15312600000000	0.00000000000000	0.10635400000000	-1.14621400000000	3.10440700000000	0.58400200000000	0.00000000000000	0.00000000000000	0.00000000000000	0.00000000000000	22.69186200000000	0.00000000000000	0.00000000000000	0.18254400000000	0.00000000000000	
21.26158600000000	-41.15945600000000	767.66528500000004	50.64630100000000	0.15222600000000	0.00000000000000	0.10630600000000	-1.78162300000000	6.87386100000000	1.02271100000000	0.00000000000000	0.00000000000000	0.00000000000000	0.00000000000000	22.56891600000000	0.00000000000000	0.00000000000000	0.33936800000000	0.00000000000000	
21.26326000000000	-41.25352700000000	763.56171099999995	50.40211700000000	0.15130100000000	0.00000000000000	0.10625500000000	-2.48874400000000	11.54997400000000	1.53713000000000	0.00000000000000	0.00000000000000	0.00000000000000	0.00000000000000	22.44654500000000	0.00000000000000	0.00000000000000	0.52664800000000	0.00000000000000	
21.26491900000000	-41.37650900000000	759.39689099999998	50.14135100000000	0.15035300000000	0.00000000000000	0.10620100000000	-3.24254000000000	17.11679100000000	2.11694400000000	0.00000000000000	0.00000000000000	0.00000000000000	0.00000000000000	22.32499300000000	0.00000000000000	0.00000000000000	0.74162400000000	0.00000000000000	
21.26658600000000	-41.52905600000000	755.17301499999996	49.86411600000000	0.14938200000000	0.00000000000000	0.10614300000000	-4.01260100000000	23.52205500000000	2.74776700000000	0.00000000000000	0.00000000000000	0.00000000000000	0.00000000000000	22.20449500000000	0.00000000000000	0.00000000000000	0.98004800000000	0.00000000000000	
21.26825300000000	-41.71170500000000	750.89202899999998	49.57053000000000	0.14838700000000	0.00000000000000	0.10608300000000	-4.76510500000000	30.68154600000000	3.41208300000000	0.30133500000000	0.00000000000000	-0.08016900000000	0.00000000000000	22.08526900000000	0.00000000000000	0.00000000000000	1.88263200000000	0.00000000000000	
21.26992600000000	-41.92486100000000	746.55563099999995	49.26072000000000	0.14737100000000	0.00000000000000	0.10601900000000	-5.46521300000000	38.48668000000000	4.09053000000000	0.31093300000000	0.00000000000000	-0.08058200000000	0.00000000000000	21.96752100000000	0.00000000000000	0.00000000000000	2.33611200000000	0.00000000000000	
21.27159200000000	-42.16880500000000	742.16526199999998	48.93482200000000	0.14633400000000	0.00000000000000	0.10595200000000	-6.07963000000000	46.81431200000000	4.76337000000000	0.31905900000000	0.00000000000000	-0.08092000000000	0.00000000000000	21.85144000000000	0.00000000000000	0.00000000000000	2.80582400000000	0.00000000000000	
21.27325700000000	-42.44368100000000	737.72210099999995	48.59297500000000	0.14527600000000	0.00000000000000	0.10588200000000	-6.57896000000000	55.53733600000000	5.41193700000000	0.32606600000000	0.00000000000000	-0.08120000000000	0.00000000000000	21.73719700000000	0.00000000000000	0.00000000000000	3.28062300000000	0.00000000000000	
21.27492100000000	-42.74950000000000	733.22706400000004	48.23532500000000	0.14420000000000	0.00000000000000	0.10580800000000	-6.93956800000000	64.53462700000000	6.01987400000000	0.33220500000000	0.00000000000000	-0.08143500000000	0.00000000000000	21.62494800000000	0.00000000000000	0.00000000000000	3.75017300000000	0.00000000000000	
21.27658700000000	-43.08613500000000	728.68079499999999	47.86202200000000	0.14310700000000	0.00000000000000	0.10573100000000	-7.14477500000000	73.69923799999999	6.57404300000000	0.33765500000000	0.00000000000000	-0.08163500000000	0.00000000000000	21.51482500000000	0.00000000000000	0.00000000000000	4.20555800000000	0.00000000000000	
21.27826000000000	-43.45332100000000	724.08367599999997	47.47321900000000	0.14199800000000	0.00000000000000	0.10565000000000	-7.18532800000000	82.94423100000000	7.06504100000000	0.34255200000000	0.00000000000000	-0.08180700000000	0.00000000000000	21.40694400000000	0.00000000000000	0.00000000000000	4.63968900000000	0.00000000000000	
21.27992100000000	-43.85065100000000	719.43581700000004	47.06907400000000	0.14087600000000	0.00000000000000	0.10556500000000	-7.05919600000000	92.20591700000000	7.48732800000000	0.34699800000000	0.00000000000000	-0.08195500000000	0.00000000000000	21.30139600000000	0.00000000000000	0.00000000000000	5.04751100000000	0.00000000000000	
21.28158900000000	-44.27757800000000	714.73706800000002	46.64974500000000	0.13974100000000	0.00000000000000	0.10547600000000	-6.77081000000000	101.44464700000000	7.83902400000000	0.35107200000000	0.00000000000000	-0.08208300000000	0.00000000000000	21.19825300000000	0.00000000000000	0.00000000000000	5.42600000000000	0.00000000000000	
